<?xml version="1.0" encoding="utf-8"?>
<!-- Generator: Adobe Illustrator 16.0.0, SVG Export Plug-In . SVG Version: 6.00 Build 0)  -->
<!DOCTYPE svg PUBLIC "-//W3C//DTD SVG 1.1//EN" "http://www.w3.org/Graphics/SVG/1.1/DTD/svg11.dtd">
<svg version="1.1" id="Layer_1" xmlns="http://www.w3.org/2000/svg" xmlns:xlink="http://www.w3.org/1999/xlink" x="0px" y="0px"
	 width="196px" height="34px" viewBox="0 0 196 34" enable-background="new 0 0 196 34" xml:space="preserve">
<g>
	<path fill="#FFFFFF" d="M9.227,10.023H4.713H3.007H2.769c-0.401,0-0.725,0.322-0.725,0.725v0.229v15.994v0.396
		c0,0.4,0.324,0.726,0.725,0.726h1.944c0.4,0,0.726-0.323,0.726-0.726v-0.396h0.005v-4.967h4.012c3.58,0,6.092-2.311,6.092-5.891
		C15.548,12.612,13.467,10.023,9.227,10.023z M8.82,19.161H5.444v-6.295h3.249c1.956,0,3.301,0.736,3.301,3.248
		C11.994,17.893,10.954,19.161,8.82,19.161z"/>
	<path fill="#FFFFFF" d="M28.56,16.576L28.56,16.576l-0.001-0.596c0-0.399-0.324-0.725-0.725-0.725h-1.645
		c-0.4,0-0.726,0.325-0.726,0.725v0.596h-0.002v5.578c0,1.551-0.71,3.25-3.044,3.25c-1.566,0-2.277-0.754-2.285-2.508v-6.916
		c0-0.399-0.325-0.725-0.726-0.725h-1.646c-0.4,0-0.726,0.325-0.726,0.725v0.288h-0.002v7.486c0,3.731,2.514,4.646,4.696,4.646
		c1.751,0,2.995-0.687,3.68-1.573h0.051v0.511h0.002v0.033c0,0.398,0.325,0.725,0.726,0.725h1.645c0.4,0,0.725-0.324,0.725-0.725
		v-0.033h0.001L28.56,16.576L28.56,16.576z"/>
	<path fill="#FFFFFF" d="M37.372,14.947c-1.524,0-2.716,0.533-3.655,1.395v-4.354h0.001v-1.243c0-0.399-0.326-0.724-0.727-0.724
		h-1.647c-0.401,0-0.727,0.323-0.727,0.724v1.244h0.003v13.343h-0.003v2.037c0,0.4,0.325,0.727,0.727,0.727h1.647
		c0.4,0,0.727-0.324,0.727-0.727v-0.518h0.051c0.76,0.914,1.751,1.549,3.604,1.549c3.301,0,5.587-3.021,5.587-6.728
		C42.959,17.968,40.673,14.947,37.372,14.947z M36.662,25.559c-2.336,0-3.021-2.031-3.047-3.885
		c0.026-1.854,0.711-3.884,3.047-3.884c2.335,0,3.021,2.03,3.046,3.884C39.683,23.527,38.997,25.559,36.662,25.559z"/>
	<path fill="#1799D5" d="M61.877,10.74l-0.006-0.005c-0.007-0.396-0.327-0.712-0.723-0.712h-0.045h-3.705h-0.029v0.003
		c-0.341,0.014-0.62,0.26-0.683,0.587l-3.159,13.421h-0.053L50.308,10.61c-0.002-0.009-0.004-0.019-0.006-0.026l-0.01-0.042h-0.004
		c-0.086-0.292-0.35-0.506-0.667-0.517v-0.002h-0.024h-3.92h-0.01c-0.39,0-0.705,0.307-0.722,0.692l-0.002,0.002v0.025
		c0,0.001-0.001,0.002-0.001,0.004v16.621c0,0.4,0.324,0.726,0.725,0.726h1.826c0.4,0,0.725-0.323,0.725-0.726v-0.176h0.001V13.182
		l0.09-0.008l3.339,14.17h0.001l0.005,0.022c0.092,0.392,0.335,0.712,0.723,0.724v0.004h2.097l0.004-0.004
		c0.391-0.01,0.623-0.33,0.716-0.724l0.021-0.085l0.002-0.004l0.657-2.788l1.24-5.249h-0.003l1.468-6.224h0.052v0.166h-0.007v14.185
		c0,0.4,0.326,0.727,0.727,0.727h1.799c0.4,0,0.725-0.324,0.725-0.727v-0.186h0.005V10.74H61.877z"/>
	<path fill="#1799D5" d="M83.274,15.251h-1.581v-3.817c0-0.401-0.324-0.727-0.724-0.727h-1.646c-0.402,0-0.725,0.325-0.725,0.727
		v3.817h-1.586c-0.321,0-0.584,0.26-0.584,0.582v1.308c0,0.321,0.263,0.582,0.584,0.582h1.586v9.646
		c0,0.399,0.322,0.726,0.725,0.726h1.646c0.399,0,0.724-0.324,0.724-0.726v-9.646h1.581c0.324,0,0.584-0.261,0.584-0.582v-1.308
		C83.858,15.511,83.599,15.251,83.274,15.251z"/>
	<g>
		<g>
			<path fill="#1799D5" d="M88.71,27.368c0,0.399-0.325,0.726-0.727,0.726h-1.645c-0.4,0-0.724-0.324-0.724-0.726V15.979
				c0-0.4,0.323-0.726,0.724-0.726h1.645c0.401,0,0.727,0.325,0.727,0.726V27.368z"/>
		</g>
		<g>
			<ellipse fill="#1799D5" cx="87.154" cy="11.593" rx="1.59" ry="1.685"/>
		</g>
	</g>
	<path fill="#1799D5" d="M101.721,23.217h-1.305c-0.492,0-0.77,0.311-1.025,0.775l-0.031,0.062
		c-0.531,0.901-1.433,1.502-2.453,1.502c-2.219,0-3.335-1.882-3.335-3.886s1.116-3.884,3.335-3.884c1.021,0,1.922,0.6,2.453,1.503
		l0.031,0.062c0.256,0.467,0.533,0.774,1.025,0.774h1.305c0.625,0,0.886-0.394,0.771-0.908l-0.007-0.022
		c-0.132-0.512-0.316-0.981-0.547-1.411l-0.034-0.084c-0.877-1.534-2.371-2.755-4.997-2.755c-4.173,0-6.586,2.894-6.586,6.726
		s2.413,6.728,6.586,6.728c2.626,0,4.12-1.219,4.997-2.756l0.034-0.082c0.23-0.433,0.415-0.901,0.547-1.412l0.007-0.023
		C102.606,23.611,102.346,23.217,101.721,23.217z"/>
	<path fill="#1799D5" d="M75.246,19.161c0-3.655-2.768-4.214-5.533-4.214c-2.654,0-5.171,1.034-5.457,3.676h-0.001
		c0,0.001,0,0.003,0,0.004c-0.001,0.005-0.002,0.01-0.002,0.016l0.002,0.008c-0.018,0.39,0.085,0.695,0.658,0.731l1.638,0.097
		c0.22,0.013,0.42-0.076,0.562-0.225h0.007l0.009-0.018c0.078-0.086,0.137-0.191,0.165-0.312l0.004-0.007
		c0.167-1.209,0.836-1.587,2.415-1.587c1.345,0,2.436,0.354,2.436,1.625v0.381c-0.786,0.279-2.233,0.533-3.352,0.763l-1.295,0.252
		c-1.903,0.383-3.908,1.5-3.908,4.013c0,2.487,1.929,4.036,4.365,4.036c1.601,0,2.997-0.508,4.189-1.474
		c0,0.005,0.001,0.009,0.002,0.011v0.432c0,0.4,0.324,0.727,0.725,0.727h0.897l0.001,0.002l0.002-0.002h0.745
		c0.4,0,0.725-0.324,0.725-0.727v-1.566h0.001V19.161z M72.148,23.502c0,1.648-1.854,2.361-3.301,2.361
		c-1.117,0-2.005-0.635-2.005-1.603c0-1.217,0.965-1.549,2.132-1.774l1.702-0.356c0.559-0.101,1.066-0.254,1.472-0.457V23.502z"/>
</g>
<g>
	
		<linearGradient id="SVGID_1_" gradientUnits="userSpaceOnUse" x1="401.707" y1="-372.4097" x2="401.707" y2="-355.9619" gradientTransform="matrix(1 0 0 -1 -290 -345)">
		<stop  offset="0" style="stop-color:#99999A;stop-opacity:0.5"/>
		<stop  offset="1" style="stop-color:#99999A"/>
	</linearGradient>
	<path fill="url(#SVGID_1_)" d="M110.497,10.962L104.07,27.41h2.258l1.842-4.952h6.957l1.797,4.952h2.418l-6.427-16.448H110.497z
		 M108.861,20.613l2.788-7.669h0.047l2.74,7.669H108.861z"/>
	
		<linearGradient id="SVGID_2_" gradientUnits="userSpaceOnUse" x1="415.5654" y1="-372.4097" x2="415.5654" y2="-360.2241" gradientTransform="matrix(1 0 0 -1 -290 -345)">
		<stop  offset="0" style="stop-color:#99999A;stop-opacity:0.5"/>
		<stop  offset="1" style="stop-color:#99999A"/>
	</linearGradient>
	<path fill="url(#SVGID_2_)" d="M126.395,15.224c-1.728,0-3.041,0.691-3.871,2.165h-0.045V15.5h-1.845v11.91h1.96v-6.727
		c0-2.144,1.151-3.731,3.524-3.731c1.495,0,2.419,0.922,2.419,2.396v8.062h1.958v-7.832
		C130.495,17.02,129.527,15.224,126.395,15.224z"/>
	
		<linearGradient id="SVGID_3_" gradientUnits="userSpaceOnUse" x1="427.959" y1="-372.6851" x2="427.959" y2="-360.2241" gradientTransform="matrix(1 0 0 -1 -290 -345)">
		<stop  offset="0" style="stop-color:#99999A;stop-opacity:0.5"/>
		<stop  offset="1" style="stop-color:#99999A"/>
	</linearGradient>
	<path fill="url(#SVGID_3_)" d="M143.557,25.844c-0.207,0.069-0.416,0.114-0.6,0.114c-0.622,0-0.622-0.414-0.622-1.336v-6.126
		c0-2.789-2.326-3.272-4.468-3.272c-2.674,0-4.93,1.036-5.044,3.984h1.956c0.093-1.75,1.312-2.257,2.971-2.257
		c1.223,0,2.65,0.254,2.65,1.98c0,1.496-1.865,1.313-4.01,1.75c-2.027,0.368-4.031,0.969-4.031,3.664c0,2.396,1.775,3.34,3.938,3.34
		c1.659,0,3.11-0.553,4.194-1.843c0,1.29,0.644,1.843,1.658,1.843c0.574,0,1.059-0.115,1.406-0.321h-0.002v-1.521H143.557z
		 M140.378,23.264c0,1.106-1.06,2.694-3.639,2.694c-1.198,0-2.304-0.46-2.304-1.75c0-2.926,4.422-1.819,5.941-2.948L140.378,23.264
		L140.378,23.264z"/>
	
		<linearGradient id="SVGID_4_" gradientUnits="userSpaceOnUse" x1="436.4746" y1="-372.4097" x2="436.4746" y2="-355.9619" gradientTransform="matrix(1 0 0 -1 -290 -345)">
		<stop  offset="0" style="stop-color:#99999A;stop-opacity:0.5"/>
		<stop  offset="1" style="stop-color:#99999A"/>
	</linearGradient>
	<rect x="145.494" y="10.962" fill="url(#SVGID_4_)" width="1.958" height="16.448"/>
	
		<linearGradient id="SVGID_5_" gradientUnits="userSpaceOnUse" x1="447.5791" y1="-377.1792" x2="447.5791" y2="-356.9302" gradientTransform="matrix(1 0 0 -1 -290 -345)">
		<stop  offset="0" style="stop-color:#99999A;stop-opacity:0.5"/>
		<stop  offset="1" style="stop-color:#99999A"/>
	</linearGradient>
	<path fill="url(#SVGID_5_)" d="M163.579,11.93h-1.96v3.57h-2.025v0.002h-1.314l-3.342,9.744h-0.045l-3.479-9.744h-2.21l4.724,11.84
		l-0.808,2.026c-0.369,0.715-0.807,1.084-1.613,1.084c-0.39,0-0.781-0.162-1.148-0.276v1.797c0.436,0.16,0.896,0.207,1.357,0.207
		c1.749,0,2.534-0.877,3.454-3.179l4.521-11.773h1.932v7.579c0,2.188,0.809,2.604,2.833,2.604h1.499v-1.728h-0.898
		c-1.222,0-1.474-0.14-1.474-1.062v-7.395h2.372V15.5h-2.372v-3.57H163.579z"/>
	
		<linearGradient id="SVGID_6_" gradientUnits="userSpaceOnUse" x1="459.2578" y1="-372.4097" x2="459.2578" y2="-360.5" gradientTransform="matrix(1 0 0 -1 -290 -345)">
		<stop  offset="0" style="stop-color:#99999A;stop-opacity:0.5"/>
		<stop  offset="1" style="stop-color:#99999A"/>
	</linearGradient>
	<rect x="168.279" y="15.5" fill="url(#SVGID_6_)" width="1.955" height="11.91"/>
	
		<linearGradient id="SVGID_7_" gradientUnits="userSpaceOnUse" x1="459.2578" y1="-358.3579" x2="459.2578" y2="-355.9619" gradientTransform="matrix(1 0 0 -1 -290 -345)">
		<stop  offset="0" style="stop-color:#99999A;stop-opacity:0.5"/>
		<stop  offset="1" style="stop-color:#99999A"/>
	</linearGradient>
	<rect x="168.279" y="10.962" fill="url(#SVGID_7_)" width="1.955" height="2.396"/>
	
		<linearGradient id="SVGID_8_" gradientUnits="userSpaceOnUse" x1="467.4707" y1="-372.6851" x2="467.4707" y2="-360.2231" gradientTransform="matrix(1 0 0 -1 -290 -345)">
		<stop  offset="0" style="stop-color:#99999A;stop-opacity:0.5"/>
		<stop  offset="1" style="stop-color:#99999A"/>
	</linearGradient>
	<path fill="url(#SVGID_8_)" d="M177.607,25.958c-2.487,0-3.479-2.142-3.479-4.354c0-2.396,0.875-4.651,3.707-4.651
		c1.639,0,2.65,0.875,2.95,2.372h2.028c-0.299-2.834-2.42-4.101-5.135-4.101c-3.779,0-5.623,2.81-5.623,6.38
		s1.936,6.082,5.574,6.082c3.016,0,4.812-1.705,5.251-4.631h-2.005C180.626,24.876,179.521,25.958,177.607,25.958z"/>
	
		<linearGradient id="SVGID_9_" gradientUnits="userSpaceOnUse" x1="479.3242" y1="-372.687" x2="479.3242" y2="-360.2261" gradientTransform="matrix(1 0 0 -1 -290 -345)">
		<stop  offset="0" style="stop-color:#99999A;stop-opacity:0.5"/>
		<stop  offset="1" style="stop-color:#99999A"/>
	</linearGradient>
	<path fill="url(#SVGID_9_)" d="M190.486,20.546c-1.819-0.414-3.895-0.69-3.895-2.073c0-1.197,1.358-1.521,2.535-1.521
		c1.266,0,2.648,0.483,2.764,2.005h1.957c-0.183-2.903-2.209-3.731-4.882-3.731c-2.095,0-4.446,0.99-4.446,3.387
		c0,4.582,7.785,2.51,7.785,5.572c0,1.498-1.656,1.772-2.881,1.772c-1.588,0-3.131-0.552-3.199-2.304h-1.957
		c0.114,2.951,2.371,4.033,5.043,4.033c2.42,0,5.067-0.897,5.067-3.756C194.379,21.65,192.443,20.984,190.486,20.546z"/>
</g>
</svg>
