<svg xmlns="http://www.w3.org/2000/svg" xmlns:xlink="http://www.w3.org/1999/xlink" version="1.1" id="Layer_1" x="0px" y="0px" width="218px" height="34px" viewBox="0 0 218 34" enable-background="new 0 0 218 34" xml:space="preserve"><style>.style0{fill:	#FFFFFF;}.style1{fill:	#1799D5;}.style10{fill:	url(#SVGID_7_);}.style11{fill:	url(#SVGID_8_);}.style12{fill:	url(#SVGID_9_);}.style13{opacity:	0.6;}.style14{font-size:	13;font-family:	'HelveticaNeueLTPro-ExO';fill:	#999999;}.style2{stop-color:	#99999A;stop-opacity:	0.5;}.style3{stop-color:	#99999A;}.style4{fill:	url(#SVGID_1_);}.style5{fill:	url(#SVGID_2_);}.style6{fill:	url(#SVGID_3_);}.style7{fill:	url(#SVGID_4_);}.style8{fill:	url(#SVGID_5_);}.style9{fill:	url(#SVGID_6_);}</style><g><path d="M9.227 10.023H4.713H3.007H2.769c-0.401 0-0.725 0.322-0.725 0.725v0.229v15.993v0.397 c0 0.4 0.3 0.7 0.7 0.726h1.944c0.4 0 0.726-0.324 0.726-0.726v-0.397h0.005v-4.966h4.012c3.58 0 6.092-2.31 6.092-5.891 C15.548 12.6 13.5 10 9.2 10.023z M8.82 19.161H5.444v-6.295h3.249c1.956 0 3.3 0.7 3.3 3.2 C11.994 17.9 11 19.2 8.8 19.161z" class="style0"/><path d="M28.56 16.576L28.56 16.576l-0.001-0.596c0-0.399-0.324-0.725-0.725-0.725h-1.645 c-0.4 0-0.726 0.325-0.726 0.725v0.596h-0.002v5.579c0 1.55-0.71 3.25-3.044 3.25c-1.566 0-2.277-0.754-2.285-2.508v-6.916 c0-0.399-0.325-0.725-0.726-0.725h-1.645c-0.4 0-0.726 0.325-0.726 0.725v0.288h-0.002v7.486c0 3.7 2.5 4.6 4.7 4.6 c1.751 0 2.995-0.687 3.68-1.574h0.051v0.511h0.002v0.033c0 0.4 0.3 0.7 0.7 0.725h1.645c0.4 0 0.725-0.324 0.725-0.725 v-0.033h0.001L28.56 16.576L28.56 16.576z" class="style0"/><path d="M37.372 14.947c-1.524 0-2.716 0.533-3.655 1.395v-4.354h0.001v-1.243c0-0.399-0.326-0.724-0.727-0.724 h-1.647c-0.401 0-0.727 0.323-0.727 0.724v1.244h0.003v13.343h-0.003v2.037c0 0.4 0.3 0.7 0.7 0.727h1.647 c0.4 0 0.727-0.325 0.727-0.727v-0.517h0.051c0.76 0.9 1.8 1.5 3.6 1.548c3.301 0 5.587-3.021 5.587-6.727 C42.959 18 40.7 14.9 37.4 14.947z M36.662 25.559c-2.336 0-3.021-2.031-3.047-3.885 c0.026-1.853 0.711-3.884 3.047-3.884c2.335 0 3 2 3 3.884C39.683 23.5 39 25.6 36.7 25.559z" class="style0"/><path d="M61.877 10.74l-0.006-0.005c-0.007-0.396-0.327-0.712-0.723-0.712h-0.045h-3.705h-0.029v0.003 c-0.341 0.014-0.62 0.26-0.683 0.587l-3.159 13.421h-0.053L50.308 10.61c-0.002-0.009-0.004-0.019-0.006-0.026l-0.01-0.042h-0.004 c-0.086-0.292-0.35-0.506-0.667-0.517v-0.002h-0.024h-3.92h-0.01c-0.39 0-0.705 0.307-0.722 0.692l-0.002 0.002v0.025 c0 0.001-0.001 0.002-0.001 0.004v16.621c0 0.4 0.3 0.7 0.7 0.726h1.826c0.4 0 0.725-0.324 0.725-0.726v-0.175h0.001v-14.01 l0.09-0.008l3.339 14.17h0.001l0.005 0.022c0.092 0.4 0.3 0.7 0.7 0.724v0.004h2.097l0.004-0.004 c0.391-0.01 0.623-0.33 0.716-0.724l0.021-0.085l0.002-0.003l0.657-2.789l1.24-5.249h-0.003l1.468-6.224h0.052v0.166h-0.007v14.185 c0 0.4 0.3 0.7 0.7 0.727h1.799c0.4 0 0.725-0.325 0.725-0.727v-0.186h0.005V10.74H61.877z" class="style1"/><path d="M83.274 15.251h-1.581v-3.817c0-0.401-0.324-0.727-0.724-0.727h-1.646c-0.402 0-0.725 0.325-0.725 0.7 v3.817h-1.586c-0.321 0-0.584 0.26-0.584 0.582v1.308c0 0.3 0.3 0.6 0.6 0.581h1.586v9.646c0 0.4 0.3 0.7 0.7 0.7 h1.646c0.399 0 0.724-0.324 0.724-0.726v-9.646h1.581c0.324 0 0.584-0.26 0.584-0.581v-1.308 C83.858 15.5 83.6 15.3 83.3 15.251z" class="style1"/><g><g><path d="M88.71 27.368c0 0.4-0.325 0.726-0.727 0.726h-1.645c-0.4 0-0.724-0.324-0.724-0.726V15.979 c0-0.4 0.323-0.726 0.724-0.726h1.645c0.401 0 0.7 0.3 0.7 0.726V27.368z" class="style1"/></g><g><ellipse cx="87.2" cy="11.6" rx="1.6" ry="1.7" class="style1"/></g></g><path d="M101.721 23.217h-1.305c-0.492 0-0.77 0.311-1.025 0.775l-0.031 0.1 c-0.531 0.902-1.433 1.502-2.453 1.502c-2.219 0-3.335-1.881-3.335-3.885s1.116-3.884 3.335-3.884c1.021 0 1.9 0.6 2.5 1.5 l0.031 0.062c0.256 0.5 0.5 0.8 1 0.774h1.305c0.625 0 0.886-0.393 0.771-0.908l-0.007-0.022 c-0.132-0.513-0.316-0.982-0.547-1.412l-0.034-0.084c-0.877-1.534-2.371-2.755-4.997-2.755c-4.173 0-6.586 2.894-6.586 6.7 s2.413 6.7 6.6 6.727c2.626 0 4.12-1.219 4.997-2.755l0.034-0.083c0.23-0.432 0.415-0.901 0.547-1.412l0.007-0.023 C102.606 23.6 102.3 23.2 101.7 23.217z" class="style1"/><path d="M75.246 19.161c0-3.655-2.768-4.214-5.533-4.214c-2.654 0-5.171 1.034-5.457 3.676h-0.001 c0 0 0 0 0 0.004c-0.001 0.005-0.002 0.01-0.002 0.016l0.002 0.008c-0.018 0.4 0.1 0.7 0.7 0.731l1.638 0.1 c0.22 0 0.42-0.077 0.562-0.225h0.007l0.009-0.017c0.078-0.087 0.137-0.192 0.165-0.312l0.004-0.007 c0.167-1.209 0.836-1.587 2.415-1.587c1.345 0 2.4 0.4 2.4 1.625v0.381c-0.786 0.279-2.233 0.533-3.352 0.763l-1.295 0.3 c-1.903 0.382-3.908 1.499-3.908 4.012c0 2.5 1.9 4 4.4 4.036c1.601 0 2.997-0.507 4.189-1.473 c0 0 0 0 0 0.011v0.431c0 0.4 0.3 0.7 0.7 0.727h0.897l0.001 0.002l0.002-0.002h0.745 c0.4 0 0.725-0.325 0.725-0.727v-1.566h0.001V19.161z M72.148 23.502c0 1.649-1.854 2.361-3.301 2.4 c-1.117 0-2.005-0.635-2.005-1.602c0-1.217 0.965-1.549 2.132-1.775l1.702-0.356c0.559-0.101 1.066-0.254 1.472-0.457V23.502z" class="style1"/></g><g><linearGradient id="SVGID_1_" gradientUnits="userSpaceOnUse" x1="111.7" y1="27.4" x2="111.7" y2="11"><stop offset="0" class="style2"/><stop offset="1" class="style3"/></linearGradient><path d="M110.497 10.962L104.07 27.41h2.258l1.842-4.952h6.957l1.797 4.952h2.418l-6.427-16.448H110.497z M108.861 20.613l2.788-7.669h0.046l2.741 7.669H108.861z" class="style4"/><linearGradient id="SVGID_2_" gradientUnits="userSpaceOnUse" x1="125.6" y1="27.4" x2="125.6" y2="15.2"><stop offset="0" class="style2"/><stop offset="1" class="style3"/></linearGradient><path d="M126.395 15.224c-1.728 0-3.041 0.691-3.871 2.165h-0.046V15.5h-1.844v11.91h1.96v-6.726 c0-2.144 1.151-3.732 3.524-3.732c1.495 0 2.4 0.9 2.4 2.396v8.062h1.958v-7.832 C130.495 17 129.5 15.2 126.4 15.224z" class="style5"/><linearGradient id="SVGID_3_" gradientUnits="userSpaceOnUse" x1="138" y1="27.7" x2="138" y2="15.2"><stop offset="0" class="style2"/><stop offset="1" class="style3"/></linearGradient><path d="M143.557 25.844c-0.207 0.069-0.416 0.114-0.6 0.114c-0.622 0-0.622-0.414-0.622-1.336v-6.126 c0-2.789-2.326-3.272-4.468-3.272c-2.673 0-4.93 1.036-5.044 3.984h1.956c0.093-1.75 1.313-2.257 2.971-2.257 c1.223 0 2.7 0.3 2.7 1.981c0 1.496-1.866 1.313-4.01 1.75c-2.027 0.368-4.031 0.968-4.031 3.7 c0 2.4 1.8 3.3 3.9 3.339c1.659 0 3.11-0.552 4.194-1.842c0 1.3 0.6 1.8 1.7 1.842c0.575 0 1.059-0.114 1.406-0.321 h-0.001V25.844z M140.378 23.264c0 1.106-1.059 2.694-3.639 2.694c-1.198 0-2.304-0.46-2.304-1.75c0-2.926 4.422-1.82 5.942-2.948 V23.264z" class="style6"/><linearGradient id="SVGID_4_" gradientUnits="userSpaceOnUse" x1="146.5" y1="27.4" x2="146.5" y2="11"><stop offset="0" class="style2"/><stop offset="1" class="style3"/></linearGradient><rect x="145.5" y="11" width="2" height="16.4" class="style7"/><linearGradient id="SVGID_5_" gradientUnits="userSpaceOnUse" x1="157.6" y1="32.2" x2="157.6" y2="11.9"><stop offset="0" class="style2"/><stop offset="1" class="style3"/></linearGradient><path d="M163.579 11.93h-1.96v3.57h-2.025v0.002h-1.314l-3.342 9.744h-0.045l-3.48-9.744h-2.21l4.724 11.8 l-0.808 2.026c-0.369 0.715-0.807 1.084-1.613 1.084c-0.39 0-0.782-0.162-1.149-0.276v1.796c0.436 0.2 0.9 0.2 1.4 0.2 c1.749 0 2.534-0.876 3.454-3.178l4.521-11.773h1.931v7.579c0 2.2 0.8 2.6 2.8 2.604h1.499v-1.728h-0.899 c-1.221 0-1.473-0.139-1.473-1.061v-7.395h2.372V15.5h-2.372V11.93z" class="style8"/><linearGradient id="SVGID_6_" gradientUnits="userSpaceOnUse" x1="169.3" y1="27.4" x2="169.3" y2="15.5"><stop offset="0" class="style2"/><stop offset="1" class="style3"/></linearGradient><rect x="168.3" y="15.5" width="2" height="11.9" class="style9"/><linearGradient id="SVGID_7_" gradientUnits="userSpaceOnUse" x1="169.3" y1="13.4" x2="169.3" y2="11"><stop offset="0" class="style2"/><stop offset="1" class="style3"/></linearGradient><rect x="168.3" y="11" width="2" height="2.4" class="style10"/><linearGradient id="SVGID_8_" gradientUnits="userSpaceOnUse" x1="177.5" y1="27.7" x2="177.5" y2="15.2"><stop offset="0" class="style2"/><stop offset="1" class="style3"/></linearGradient><path d="M177.608 25.958c-2.488 0-3.479-2.142-3.479-4.354c0-2.396 0.875-4.652 3.707-4.652 c1.639 0 2.7 0.9 3 2.372h2.029c-0.3-2.834-2.421-4.101-5.136-4.101c-3.779 0-5.623 2.81-5.623 6.4 c0 3.6 1.9 6.1 5.6 6.082c3.016 0 4.812-1.705 5.251-4.63h-2.005C180.626 24.9 179.5 26 177.6 25.958z" class="style11"/><linearGradient id="SVGID_9_" gradientUnits="userSpaceOnUse" x1="189.3" y1="27.7" x2="189.3" y2="15.2"><stop offset="0" class="style2"/><stop offset="1" class="style3"/></linearGradient><path d="M190.486 20.546c-1.819-0.414-3.894-0.69-3.894-2.073c0-1.197 1.358-1.521 2.535-1.521 c1.266 0 2.6 0.5 2.8 2.005h1.957c-0.183-2.903-2.21-3.731-4.882-3.731c-2.095 0-4.446 0.99-4.446 3.4 c0 4.6 7.8 2.5 7.8 5.572c0 1.498-1.657 1.773-2.881 1.773c-1.588 0-3.131-0.552-3.2-2.303h-1.957 c0.115 3 2.4 4 5 4.032c2.419 0 5.067-0.897 5.067-3.755C194.379 21.7 192.4 21 190.5 20.546z" class="style12"/></g><text transform="matrix(1 0 0 1 184.1328 10.9619)" class="style13"><tspan x="0" y="0" class="style14">&#223;</tspan><tspan x="8.9" y="0" class="style14">e</tspan><tspan x="17.3" y="0" class="style14">t</tspan><tspan x="22.4" y="0" class="style14">a</tspan></text></svg>