<?xml version="1.0" encoding="utf-8"?>
<!-- Generator: Adobe Illustrator 16.0.0, SVG Export Plug-In . SVG Version: 6.00 Build 0)  -->
<!DOCTYPE svg PUBLIC "-//W3C//DTD SVG 1.1//EN" "http://www.w3.org/Graphics/SVG/1.1/DTD/svg11.dtd">
<svg version="1.1" id="Layer_1" xmlns="http://www.w3.org/2000/svg" xmlns:xlink="http://www.w3.org/1999/xlink" x="0px" y="0px"
	 width="137.932px" height="26.786px" viewBox="0 0 137.932 26.786" enable-background="new 0 0 137.932 26.786"
	 xml:space="preserve">
<path fill="#0196D8" d="M10.757,1.049H4.656H2.348H2.026c-0.542,0-0.979,0.437-0.979,0.979v0.31v21.622v0.539
	c0,0.541,0.438,0.981,0.979,0.981h2.63c0.541,0,0.979-0.44,0.979-0.981v-0.539h0.009v-6.713h5.424c4.84,0,8.237-3.123,8.237-7.963
	C19.304,4.549,16.49,1.049,10.757,1.049z M10.208,13.403H5.644v-8.51h4.394c2.645,0,4.462,0.995,4.462,4.391
	C14.499,11.686,13.093,13.403,10.208,13.403z"/>
<path fill="#0196D8" d="M36.896,9.908h-0.002V9.104c0-0.54-0.438-0.979-0.979-0.979H33.69c-0.54,0-0.979,0.438-0.979,0.979v0.805
	h-0.003v7.542c0,2.096-0.96,4.396-4.116,4.396c-2.116,0-3.077-1.021-3.089-3.392V9.104c0-0.54-0.438-0.979-0.98-0.979h-2.224
	c-0.542,0-0.98,0.438-0.98,0.979v0.389h-0.003v10.123c0,5.045,3.397,6.277,6.35,6.277c2.367,0,4.049-0.928,4.977-2.128h0.067v0.688
	h0.003v0.045c0,0.541,0.439,0.981,0.979,0.981h2.225c0.541,0,0.979-0.44,0.979-0.981v-0.045h0.002V9.908z"/>
<path fill="#0196D8" d="M48.81,7.706c-2.062,0-3.672,0.721-4.942,1.886V3.706h0.002V2.024c0-0.54-0.44-0.979-0.981-0.979H40.66
	c-0.542,0-0.981,0.438-0.981,0.979v1.682h0.004v18.039h-0.004v2.754c0,0.541,0.438,0.981,0.981,0.981h2.229
	c0.541,0,0.981-0.44,0.981-0.981v-0.699h0.068c1.027,1.236,2.368,2.094,4.873,2.094c4.463,0,7.554-4.083,7.554-9.094
	C56.365,11.79,53.272,7.706,48.81,7.706z M47.849,22.051c-3.157,0-4.083-2.746-4.119-5.252c0.035-2.504,0.961-5.25,4.119-5.25
	c3.157,0,4.084,2.747,4.117,5.25C51.934,19.305,51.007,22.051,47.849,22.051z"/>
<path d="M81.94,2.018l-0.008-0.007c-0.011-0.534-0.442-0.962-0.979-0.962h-0.061h-5.009h-0.041v0.004
	c-0.46,0.019-0.838,0.352-0.922,0.793l-4.271,18.146h-0.07l-4.281-18.15c-0.002-0.013-0.006-0.023-0.009-0.036L66.276,1.75h-0.004
	c-0.117-0.395-0.474-0.684-0.902-0.698V1.049h-0.032h-5.3h-0.013c-0.528,0-0.953,0.414-0.977,0.937l-0.003,0.003v0.034
	c0,0.002,0,0.004,0,0.006V24.5c0,0.541,0.438,0.98,0.98,0.98h2.469c0.541,0,0.98-0.439,0.98-0.98v-0.236h0.001V5.32l0.121-0.01
	l4.515,19.157l0,0l0.007,0.031c0.123,0.528,0.453,0.961,0.978,0.979v0.006h2.835l0.005-0.006c0.526-0.014,0.841-0.447,0.967-0.979
	l0.027-0.117l0.003-0.004l0.889-3.771l1.676-7.097h-0.004l1.984-8.414h0.069V5.32H77.54v19.179c0,0.541,0.44,0.981,0.981,0.981
	h2.432c0.542,0,0.98-0.44,0.98-0.981v-0.25h0.007V2.018z"/>
<path d="M110.868,8.116h-2.137V2.955c0-0.542-0.438-0.981-0.979-0.981h-2.226c-0.543,0-0.98,0.439-0.98,0.981v5.161h-2.144
	c-0.436,0-0.789,0.353-0.789,0.786v1.768c0,0.437,0.354,0.788,0.789,0.788h2.144v13.041c0,0.541,0.438,0.981,0.98,0.981h2.226
	c0.541,0,0.979-0.44,0.979-0.981V11.458h2.137c0.439,0,0.791-0.352,0.791-0.788V8.902C111.658,8.469,111.307,8.116,110.868,8.116z"
	/>
<path d="M118.216,24.499c0,0.541-0.438,0.981-0.981,0.981h-2.223c-0.543,0-0.979-0.44-0.979-0.981V9.101
	c0-0.542,0.438-0.98,0.979-0.98h2.223c0.542,0,0.981,0.438,0.981,0.98V24.499z"/>
<ellipse cx="116.114" cy="3.171" rx="2.15" ry="2.278"/>
<path d="M135.807,18.885h-1.764c-0.667,0-1.041,0.42-1.387,1.051l-0.042,0.085c-0.718,1.22-1.937,2.03-3.317,2.03
	c-2.999,0-4.509-2.541-4.509-5.252c0-2.709,1.511-5.25,4.509-5.25c1.382,0,2.6,0.812,3.317,2.031l0.042,0.084
	c0.346,0.631,0.72,1.049,1.387,1.049h1.764c0.846,0,1.196-0.532,1.041-1.229l-0.009-0.031c-0.178-0.693-0.428-1.328-0.738-1.909
	l-0.046-0.113c-1.187-2.074-3.206-3.725-6.758-3.725c-5.641,0-8.902,3.912-8.902,9.093c0,5.183,3.262,9.094,8.902,9.094
	c3.552,0,5.571-1.646,6.758-3.725l0.046-0.111c0.311-0.582,0.561-1.221,0.738-1.909l0.009-0.032
	C137.004,19.418,136.653,18.885,135.807,18.885z"/>
<path d="M100.015,13.403c0-4.942-3.742-5.697-7.482-5.697c-3.588,0-6.991,1.398-7.376,4.97l-0.002,0.001c0,0.002,0,0.004,0,0.006
	c-0.001,0.007-0.002,0.013-0.003,0.02l0.002,0.01c-0.023,0.524,0.115,0.938,0.891,0.989l2.213,0.13
	c0.298,0.018,0.568-0.104,0.761-0.303h0.009l0.013-0.022c0.106-0.119,0.187-0.26,0.225-0.42l0.005-0.01
	c0.225-1.634,1.13-2.145,3.264-2.145c1.819,0,3.293,0.48,3.293,2.195v0.515c-1.062,0.378-3.02,0.722-4.531,1.03l-1.75,0.342
	c-2.573,0.516-5.283,2.025-5.283,5.423c0,3.362,2.606,5.456,5.901,5.456c2.163,0,4.051-0.686,5.663-1.989
	c0,0.007,0.002,0.011,0.002,0.015V24.5c0,0.541,0.439,0.98,0.98,0.98h1.214l0.001,0.003l0.002-0.003h1.007
	c0.542,0,0.98-0.439,0.98-0.98v-2.117l0.001-0.002v-8.979H100.015z M95.826,19.271c0,2.229-2.505,3.192-4.461,3.192
	c-1.511,0-2.711-0.859-2.711-2.166c0-1.646,1.304-2.094,2.883-2.399l2.301-0.481c0.755-0.137,1.441-0.344,1.989-0.617L95.826,19.271
	L95.826,19.271z"/>
</svg>
