<svg xmlns="http://www.w3.org/2000/svg" xmlns:xlink="http://www.w3.org/1999/xlink" version="1.1" id="Layer_1" x="0px" y="0px" width="214.833px" height="27.25px" viewBox="0 2.25 214.833 27.25" enable-background="new 0 2.25 214.833 27.25" xml:space="preserve"><style>.style0{fill:	#FFFFFF;}.style1{fill:	#1799D5;}.style10{fill:	url(#SVGID_5_);}.style11{fill:	url(#SVGID_6_);}.style12{fill:	url(#SVGID_7_);}.style13{fill:	url(#SVGID_8_);}.style14{fill:	url(#SVGID_9_);}.style2{opacity:	0.6;}.style3{font-size:	10.0282;font-family:	'HelveticaNeueLTPro-ExO';fill:	#999999;}.style4{stop-color:	#99999A;stop-opacity:	0.5;}.style5{stop-color:	#99999A;}.style6{fill:	url(#SVGID_1_);}.style7{fill:	url(#SVGID_2_);}.style8{fill:	url(#SVGID_3_);}.style9{fill:	url(#SVGID_4_);}</style><g><path d="M9.227 10.023H4.713H3.007H2.769c-0.401 0-0.725 0.322-0.725 0.725v0.229V26.97v0.397 c0 0.4 0.3 0.7 0.7 0.726h1.944c0.4 0 0.726-0.323 0.726-0.726V26.97h0.005v-4.966h4.012c3.58 0 6.092-2.311 6.092-5.891 C15.548 12.6 13.5 10 9.2 10.023z M8.82 19.161H5.444v-6.295h3.249c1.956 0 3.3 0.7 3.3 3.2 C11.994 17.9 11 19.2 8.8 19.161z" class="style0"/><path d="M28.56 16.576L28.56 16.576l-0.001-0.596c0-0.399-0.324-0.725-0.725-0.725h-1.645 c-0.4 0-0.726 0.325-0.726 0.725v0.596h-0.002v5.579c0 1.55-0.71 3.25-3.044 3.25c-1.566 0-2.277-0.755-2.285-2.509V15.98 c0-0.399-0.325-0.725-0.726-0.725h-1.645c-0.4 0-0.726 0.325-0.726 0.725v0.288h-0.002v7.486c0 3.7 2.5 4.6 4.7 4.6 c1.751 0 2.995-0.688 3.68-1.573h0.051v0.511h0.002v0.033c0 0.4 0.3 0.7 0.7 0.725h1.645c0.4 0 0.725-0.324 0.725-0.725 v-0.033h0.001L28.56 16.576L28.56 16.576z" class="style0"/><path d="M37.372 14.947c-1.524 0-2.716 0.533-3.655 1.395v-4.354h0.001v-1.243c0-0.399-0.326-0.724-0.727-0.724 h-1.647c-0.401 0-0.727 0.323-0.727 0.724v1.244h0.003v13.343h-0.003v2.037c0 0.4 0.3 0.7 0.7 0.727h1.647 c0.4 0 0.727-0.324 0.727-0.727v-0.518h0.051c0.76 0.9 1.8 1.5 3.6 1.549c3.301 0 5.587-3.021 5.587-6.729 C42.959 18 40.7 14.9 37.4 14.947z M36.662 25.559c-2.336 0-3.021-2.031-3.047-3.885 c0.026-1.854 0.711-3.884 3.047-3.884c2.335 0 3 2 3 3.884C39.683 23.5 39 25.6 36.7 25.559z" class="style0"/><path d="M61.877 10.74l-0.006-0.005c-0.007-0.396-0.327-0.712-0.723-0.712h-0.045h-3.705h-0.029v0.003 c-0.341 0.014-0.62 0.26-0.683 0.587l-3.159 13.421h-0.053L50.308 10.61c-0.002-0.009-0.004-0.019-0.006-0.026l-0.01-0.042h-0.004 c-0.086-0.292-0.35-0.506-0.667-0.517v-0.002h-0.024h-3.92h-0.01c-0.39 0-0.705 0.307-0.722 0.692l-0.002 0.002v0.025 c0 0.001-0.001 0.002-0.001 0.004v16.621c0 0.4 0.3 0.7 0.7 0.726h1.826c0.4 0 0.725-0.323 0.725-0.726v-0.176h0.001V13.182 l0.09-0.008l3.339 14.17h0.001l0.005 0.022c0.092 0.4 0.3 0.7 0.7 0.724v0.004h2.097l0.004-0.004 c0.391-0.01 0.623-0.33 0.716-0.724l0.021-0.085l0.002-0.004l0.657-2.788l1.24-5.249h-0.003l1.468-6.224h0.052v0.166h-0.007v14.185 c0 0.4 0.3 0.7 0.7 0.727h1.799c0.4 0 0.725-0.324 0.725-0.727v-0.186h0.005V10.74H61.877z" class="style1"/><path d="M83.274 15.251h-1.581v-3.817c0-0.401-0.324-0.727-0.724-0.727h-1.646c-0.402 0-0.725 0.325-0.725 0.7 v3.817h-1.586c-0.321 0-0.584 0.26-0.584 0.582v1.308c0 0.3 0.3 0.6 0.6 0.582h1.586v9.646 c0 0.4 0.3 0.7 0.7 0.726h1.646c0.399 0 0.724-0.323 0.724-0.726v-9.646h1.581c0.324 0 0.584-0.261 0.584-0.582v-1.308 C83.858 15.5 83.6 15.3 83.3 15.251z" class="style1"/><g><g><path d="M88.71 27.368c0 0.399-0.325 0.726-0.727 0.726h-1.645c-0.4 0-0.724-0.324-0.724-0.726V15.979 c0-0.4 0.323-0.726 0.724-0.726h1.645c0.401 0 0.7 0.3 0.7 0.726V27.368z" class="style1"/></g><g><ellipse cx="87.2" cy="11.6" rx="1.6" ry="1.7" class="style1"/></g></g><path d="M101.721 23.217h-1.305c-0.492 0-0.77 0.311-1.025 0.775l-0.031 0.062c-0.531 0.9-1.433 1.502-2.453 1.5 c-2.219 0-3.335-1.883-3.335-3.887s1.116-3.884 3.335-3.884c1.021 0 1.9 0.6 2.5 1.503l0.031 0.1 c0.256 0.5 0.5 0.8 1 0.773h1.305c0.625 0 0.886-0.395 0.771-0.908l-0.007-0.021c-0.132-0.512-0.316-0.981-0.547-1.411 l-0.034-0.084c-0.877-1.534-2.371-2.755-4.997-2.755c-4.173 0-6.586 2.894-6.586 6.726s2.413 6.7 6.6 6.7 c2.626 0 4.12-1.219 4.997-2.756l0.034-0.082c0.23-0.433 0.415-0.9 0.547-1.412l0.007-0.022 C102.606 23.6 102.3 23.2 101.7 23.217z" class="style1"/><path d="M75.246 19.161c0-3.655-2.768-4.214-5.533-4.214c-2.654 0-5.171 1.034-5.457 3.676h-0.001 c0 0 0 0 0 0.004c-0.001 0.005-0.002 0.01-0.002 0.016l0.002 0.008c-0.018 0.4 0.1 0.7 0.7 0.731l1.638 0.1 c0.22 0 0.42-0.076 0.562-0.225h0.007l0.009-0.018c0.078-0.086 0.137-0.191 0.165-0.312l0.004-0.007 c0.167-1.209 0.836-1.587 2.415-1.587c1.345 0 2.4 0.4 2.4 1.625v0.381c-0.786 0.279-2.233 0.533-3.352 0.764l-1.295 0.3 c-1.903 0.383-3.908 1.5-3.908 4.013c0 2.5 1.9 4 4.4 4.036c1.601 0 2.997-0.508 4.189-1.475 c0 0 0 0 0 0.012v0.432c0 0.4 0.3 0.7 0.7 0.727h0.897l0.001 0.002l0.002-0.002h0.745 c0.4 0 0.725-0.324 0.725-0.727v-1.566h0.001V19.161z M72.148 23.502c0 1.648-1.854 2.361-3.301 2.4 c-1.117 0-2.005-0.635-2.005-1.604c0-1.217 0.965-1.549 2.132-1.773l1.702-0.356c0.559-0.101 1.066-0.254 1.472-0.457V23.502z" class="style1"/></g><g><g class="style2"><text transform="matrix(1 0 0 1 190.1572 10.5122)" class="style3">&#223;</text></g><g class="style2"><text transform="matrix(1 0 0 1 197.0557 10.5122)" class="style3">e</text></g><g class="style2"><text transform="matrix(1 0 0 1 203.4941 10.5122)" class="style3">t</text></g><g class="style2"><text transform="matrix(1 0 0 1 207.4551 10.5122)" class="style3">a</text></g></g><g><linearGradient id="SVGID_1_" gradientUnits="userSpaceOnUse" x1="110.9" y1="24" x2="110.9" y2="7.6" gradientTransform="matrix(1 0 0 -1 0 35)"><stop offset="0" class="style4"/><stop offset="1" class="style5"/></linearGradient><path d="M104.07 10.962h2.187v8.2l8.339-8.2h2.831l-6.932 6.633l7.207 9.812h-2.765l-5.94-8.312l-2.74 2.6 v5.759h-2.187V10.962z" class="style6"/><linearGradient id="SVGID_2_" gradientUnits="userSpaceOnUse" x1="120.2" y1="24" x2="120.2" y2="7.6" gradientTransform="matrix(1 0 0 -1 0 35)"><stop offset="0" class="style4"/><stop offset="1" class="style5"/></linearGradient><path d="M121.184 13.358h-1.957v-2.396h1.957V13.358z M119.227 15.499h1.957v11.906h-1.957V15.499z" class="style7"/><linearGradient id="SVGID_3_" gradientUnits="userSpaceOnUse" x1="128.4" y1="19.8" x2="128.4" y2="7.3" gradientTransform="matrix(1 0 0 -1 0 35)"><stop offset="0" class="style4"/><stop offset="1" class="style5"/></linearGradient><path d="M131.729 19.322c-0.299-1.496-1.312-2.372-2.946-2.372c-2.834 0-3.709 2.257-3.709 4.7 c0 2.2 1 4.4 3.5 4.354c1.912 0 3.019-1.083 3.271-2.9h2.002c-0.438 2.924-2.234 4.629-5.25 4.6 c-3.642 0-5.574-2.513-5.574-6.08c0-3.57 1.845-6.38 5.619-6.38c2.719 0 4.8 1.3 5.1 4.1L131.729 19.322L131.729 19.322z" class="style8"/><linearGradient id="SVGID_4_" gradientUnits="userSpaceOnUse" x1="140.2" y1="24" x2="140.2" y2="7.6" gradientTransform="matrix(1 0 0 -1 0 35)"><stop offset="0" class="style4"/><stop offset="1" class="style5"/></linearGradient><path d="M134.979 10.962h1.957v9.742l5.436-5.205h2.625l-4.721 4.33l5.065 7.576h-2.487l-4.074-6.218 l-1.844 1.705v4.513h-1.957V10.962z" class="style9"/><linearGradient id="SVGID_5_" gradientUnits="userSpaceOnUse" x1="151.1" y1="19.8" x2="151.1" y2="7.3" gradientTransform="matrix(1 0 0 -1 0 35)"><stop offset="0" class="style4"/><stop offset="1" class="style5"/></linearGradient><path d="M148.014 23.652c0.069 1.8 1.6 2.3 3.2 2.303c1.22 0 2.88-0.275 2.88-1.773 c0-3.062-7.785-0.99-7.785-5.572c0-2.396 2.35-3.386 4.444-3.386c2.672 0 4.7 0.8 4.9 3.732h-1.955 c-0.115-1.521-1.498-2.003-2.767-2.003c-1.174 0-2.533 0.322-2.533 1.521c0 1.4 2.1 1.7 3.9 2.1 c1.957 0.4 3.9 1.1 3.9 3.386c0 2.855-2.646 3.754-5.064 3.754c-2.672 0-4.93-1.082-5.045-4.029h1.957V23.652z" class="style10"/><linearGradient id="SVGID_6_" gradientUnits="userSpaceOnUse" x1="159.7" y1="23.1" x2="159.7" y2="7.6" gradientTransform="matrix(1 0 0 -1 0 35)"><stop offset="0" class="style4"/><stop offset="1" class="style5"/></linearGradient><path d="M160.473 15.499h2.373v1.727h-2.373v7.393c0 0.9 0.3 1.1 1.5 1.061h0.898v1.727h-1.496 c-2.027 0-2.834-0.414-2.834-2.604v-7.577h-2.025v-1.727h2.025V11.93h1.957V15.499z" class="style11"/><linearGradient id="SVGID_7_" gradientUnits="userSpaceOnUse" x1="170" y1="19.8" x2="170" y2="7.3" gradientTransform="matrix(1 0 0 -1 0 35)"><stop offset="0" class="style4"/><stop offset="1" class="style5"/></linearGradient><path d="M175.561 27.359c-0.347 0.207-0.83 0.322-1.406 0.322c-1.012 0-1.656-0.553-1.656-1.843 c-1.084 1.29-2.535 1.843-4.193 1.843c-2.164 0-3.938-0.943-3.938-3.34c0-2.695 2.002-3.293 4.029-3.66 c2.143-0.438 4.008-0.254 4.008-1.752c0-1.727-1.428-1.979-2.648-1.979c-1.658 0-2.877 0.506-2.971 2.257h-1.957 c0.115-2.948 2.371-3.986 5.043-3.986c2.143 0 4.5 0.5 4.5 3.271v6.126c0 0.9 0 1.3 0.6 1.3 c0.184 0 0.393-0.047 0.6-0.115V27.359L175.561 27.359z M172.38 21.258c-1.521 1.128-5.94 0.021-5.94 2.9 c0 1.3 1.1 1.8 2.3 1.75c2.58 0 3.639-1.589 3.639-2.694L172.38 21.258L172.38 21.258z" class="style12"/><linearGradient id="SVGID_8_" gradientUnits="userSpaceOnUse" x1="180.5" y1="19.8" x2="180.5" y2="7.6" gradientTransform="matrix(1 0 0 -1 0 35)"><stop offset="0" class="style4"/><stop offset="1" class="style5"/></linearGradient><path d="M177.366 15.499h1.842v2.511h0.045c0.945-1.935 2.261-2.854 4.377-2.788v2.073 c-3.153 0-4.308 1.773-4.308 4.814v5.296h-1.956V15.499L177.366 15.499z" class="style13"/><linearGradient id="SVGID_9_" gradientUnits="userSpaceOnUse" x1="188.2" y1="23.1" x2="188.2" y2="7.6" gradientTransform="matrix(1 0 0 -1 0 35)"><stop offset="0" class="style4"/><stop offset="1" class="style5"/></linearGradient><path d="M189.018 15.499h2.373v1.727h-2.373v7.393c0 0.9 0.3 1.1 1.5 1.061h0.898v1.727h-1.496 c-2.027 0-2.832-0.414-2.832-2.604v-7.577h-2.029v-1.727h2.029V11.93h1.955V15.499z" class="style14"/></g></svg>