<?xml version="1.0" encoding="utf-8"?>
<!-- Generator: Adobe Illustrator 16.0.0, SVG Export Plug-In . SVG Version: 6.00 Build 0)  -->
<!DOCTYPE svg PUBLIC "-//W3C//DTD SVG 1.1//EN" "http://www.w3.org/Graphics/SVG/1.1/DTD/svg11.dtd">
<svg version="1.1" id="Layer_1" xmlns="http://www.w3.org/2000/svg" xmlns:xlink="http://www.w3.org/1999/xlink" x="0px" y="0px"
	 width="239px" height="66px" viewBox="0 0 239 66" enable-background="new 0 0 239 66" xml:space="preserve">
<g>
	<path fill="#231F20" d="M26.557,5.665h-13.45H8.024H7.315c-1.194,0-2.16,0.959-2.16,2.16v0.683v47.646v1.185
		c0,1.192,0.966,2.162,2.16,2.162h5.792c1.191,0,2.163-0.964,2.163-2.162v-1.185h0.015V41.359h11.953
		c10.666,0,18.149-6.883,18.149-17.549C45.388,13.377,39.188,5.665,26.557,5.665z M25.343,32.89H15.285V14.136h9.68
		c5.827,0,9.835,2.192,9.835,9.677C34.8,29.111,31.701,32.89,25.343,32.89z"/>
	<path fill="#231F20" d="M84.155,25.188L84.155,25.188l-0.003-1.775c0-1.189-0.966-2.162-2.16-2.162h-4.901
		c-1.191,0-2.163,0.969-2.163,2.162v1.775h-0.006v16.623c0,4.617-2.115,9.683-9.069,9.683c-4.665,0-6.783-2.248-6.808-7.474V23.414
		c0-1.189-0.968-2.162-2.163-2.162h-4.899c-1.193,0-2.164,0.969-2.164,2.162v0.855h-0.005v22.304
		c0,11.114,7.488,13.844,13.989,13.844c5.217,0,8.924-2.051,10.965-4.688h0.151v1.522h0.006v0.099c0,1.188,0.969,2.158,2.163,2.158
		h4.901c1.191,0,2.16-0.966,2.16-2.158v-0.099h0.003L84.155,25.188L84.155,25.188z"/>
	<path fill="#231F20" d="M110.408,20.335c-4.54,0-8.093,1.589-10.89,4.155V11.519h0.003V7.816c0-1.188-0.971-2.157-2.165-2.157
		H92.45c-1.196,0-2.166,0.962-2.166,2.157v3.707h0.009v39.752h-0.009v6.068c0,1.192,0.967,2.164,2.166,2.164h4.906
		c1.191,0,2.165-0.966,2.165-2.164v-1.542h0.152c2.264,2.724,5.217,4.614,10.737,4.614c9.834,0,16.646-9.002,16.646-20.049
		C127.055,29.334,120.242,20.335,110.408,20.335z M108.293,51.95c-6.959,0-9-6.052-9.077-11.573
		c0.077-5.521,2.118-11.571,9.077-11.571c6.957,0,9.001,6.049,9.075,11.571C117.294,45.898,115.25,51.95,108.293,51.95z"/>
	<g>
		<path fill="#1798D5" d="M180.41,39.088c0,14.971-8.844,22.26-23.656,22.26c-14.97,0-23.578-7.136-23.578-22.26V4.652h12.178
			v34.437c0,6.05,1.551,12.021,11.4,12.021c8.688,0,11.479-3.723,11.479-12.021V4.652h12.179L180.41,39.088L180.41,39.088z"/>
		<path fill="#1798D5" d="M200.57,31.022l-17.838-26.37h14.115l10.858,17.684l11.246-17.684h13.34L214.532,31.1l19.312,28.93H219.34
			l-12.1-19.157L194.909,60.03H181.18L200.57,31.022z"/>
	</g>
</g>
</svg>
