<?xml version="1.0" encoding="utf-8"?>
<!-- Generator: Adobe Illustrator 16.0.0, SVG Export Plug-In . SVG Version: 6.00 Build 0)  -->
<!DOCTYPE svg PUBLIC "-//W3C//DTD SVG 1.1//EN" "http://www.w3.org/Graphics/SVG/1.1/DTD/svg11.dtd">
<svg version="1.1" id="Layer_1" xmlns="http://www.w3.org/2000/svg" xmlns:xlink="http://www.w3.org/1999/xlink" x="0px" y="0px"
	 width="76.988px" height="60px" viewBox="0 0 76.988 60" enable-background="new 0 0 76.988 60" xml:space="preserve">
<g>
	<path fill="#FFFFFF" d="M28.782,56.79l-0.149,0.523l-1.413-0.752l0,0c-0.707-0.374-1.408-0.752-2.102-1.133l-0.097,0.167
		l-1.058-0.805l0,0c-7.891-4.396-15.498-9.339-21.604-13.552l-0.542-0.375l0.953,0.12l0,0c4.133,0.515,8.12,0.927,11.887,1.215l0,0
		c-0.603-2.858-0.266-5.685,0.834-8.425l0,0c0.355-0.873,0.786-1.736,1.3-2.59l0,0c0.178-0.622,0.382-1.243,0.642-1.85l0,0
		c5.541-13.654,27.984-24.006,56.32-26.648l1.405,0.652l0.013,0.002l0,0C68.315,3.978,61.81,5.077,55.784,6.566l0,0
		c2.658-0.582,5.396-1.065,8.201-1.442l1.523,0.643l0,0c-6.742,1.397-12.408,3.161-17.227,5.21l0,0
		c6.107-1.862,12.582-3.174,19.031-3.777l1.568,0.622l0,0c-18.711,9.398-39.425,16.28-44.417,28.637l0,0
		c-0.733,1.813-1.129,3.744-1.143,5.815l0,0c4.386-0.096,8.728-0.196,12.776-0.292l1.397,0.652l0,0
		c-3.776,0.623-8.605,0.807-14.14,0.641l0,0c0.014,0.311,0.047,0.629,0.078,0.948l0,0c1.729,0.216,3.339,0.401,4.685,0.522
		l1.158,0.65l0,0c-1.523,0.143-3.345,0.725-5.402,1.294l0,0c0.396,1.612,1.002,3.305,1.847,5.088l0,0
		c3.592-3.565,9.646-6.423,15.902-8.995l1.717,0.584l0,0c-5.659,3.9-12.225,7.505-14.236,12.472l0,0
		C28.989,56.151,28.869,56.467,28.782,56.79L28.782,56.79z M27.301,55.348c1.313-3.242,4.523-5.897,8.15-8.415l0,0
		c-3.719,1.906-6.907,4.013-8.931,6.436l0,0c0.107,0.205,0.221,0.41,0.34,0.617l-0.722-0.123l0,0
		c-0.25,0.328-0.48,0.664-0.691,1.004l0,0c0.564,0.312,1.126,0.62,1.681,0.924l0,0C27.187,55.641,27.242,55.493,27.301,55.348
		L27.301,55.348z M24.048,53.746c0.146-0.22,0.312-0.437,0.481-0.647l0,0c-0.61-0.626-1.178-1.246-1.722-1.868l0,0
		c-0.171-0.012-0.385-0.046-0.686-0.122l0,0c-0.41-0.113-0.633-0.229-0.754-0.297l-0.14-0.078l-0.053-0.069l0,0
		c-0.578-0.761-1.116-1.526-1.592-2.29l0,0c-0.204-0.023-0.408-0.049-0.615-0.08l0,0C20.21,50.13,21.897,51.952,24.048,53.746
		L24.048,53.746z M20.999,52.319c-1.56-1.451-2.828-2.91-3.812-4.369l0,0c-0.005-0.001-0.009-0.002-0.014-0.003l0,0
		c-0.31-0.085-0.708-0.214-1-0.376l-0.54-0.295l0.531-0.031l0,0c0.182-0.014,0.357-0.026,0.537-0.042l0,0
		c-0.125-0.204-0.243-0.406-0.355-0.61l-0.642-0.174l0,0c0.086-0.192,0.16-0.388,0.236-0.582l0,0
		c-0.354-0.719-0.65-1.438-0.89-2.157l0,0c-1.53-0.188-2.925-0.347-4.084-0.45L9.88,42.572l0,0c0.647-0.015,1.301-0.028,1.957-0.044
		l0,0c-2.396-0.223-4.87-0.493-7.388-0.797l0,0C9.274,45.048,14.996,48.787,20.999,52.319L20.999,52.319z M18.961,47.761
		c0.092,0.012,0.182,0.022,0.274,0.034l0,0c-0.015-0.022-0.024-0.044-0.035-0.065l0,0C19.118,47.74,19.039,47.75,18.961,47.761
		L18.961,47.761z M22.419,48.509l0.305-0.004l0,0l0,0L22.419,48.509L22.419,48.509z M22.176,48.263l0.506,0.137L22.176,48.263
		L22.176,48.263z M21.899,48.075c0.287,0.033,0.418,0.031,0.703,0.081l0,0c-0.114-0.352-0.224-0.7-0.316-1.042l0,0
		c-0.293,0.068-0.579,0.139-0.876,0.205l0,0C21.565,47.569,21.73,47.823,21.899,48.075L21.899,48.075z M18.172,47.011
		c0.195-0.028,0.381-0.062,0.569-0.098l0,0c-0.238-0.455-0.47-0.908-0.667-1.362l0,0c-0.106,0.239-0.203,0.479-0.299,0.721l0,0
		C17.905,46.521,18.039,46.767,18.172,47.011L18.172,47.011z M20.88,46.435c0.386-0.098,0.768-0.201,1.146-0.307l0,0
		c-0.128-0.538-0.235-1.068-0.308-1.586l0,0c-0.652-0.086-1.304-0.17-1.956-0.255l0,0C20.093,45.001,20.458,45.714,20.88,46.435
		L20.88,46.435z M23.654,45.671c0.795-0.225,1.562-0.434,2.305-0.602l0,0c-0.785-0.092-1.605-0.191-2.45-0.298l0,0
		C23.548,45.065,23.604,45.369,23.654,45.671L23.654,45.671z M16.646,43.346c0.099,0.011,0.193,0.023,0.291,0.036l0,0
		c0.038-0.091,0.076-0.183,0.114-0.273l0,0c-0.156,0.003-0.307,0.006-0.457,0.01l0,0C16.608,43.194,16.626,43.268,16.646,43.346
		L16.646,43.346z M19.516,43.718c0.707,0.092,1.429,0.189,2.128,0.277l0,0c-0.038-0.266-0.055-0.525-0.088-0.789l0,0
		c-0.75-0.029-1.518-0.068-2.295-0.111l0,0C19.345,43.302,19.424,43.511,19.516,43.718L19.516,43.718z M16.41,42.323
		c0.175,0.011,0.344,0.021,0.525,0.035l0,0c-0.326-1.212-0.518-2.418-0.586-3.611l0,0c-0.027-0.189-0.049-0.377-0.078-0.568l0,0
		C16.106,39.551,16.149,40.935,16.41,42.323L16.41,42.323z M19.364,42.363c0.716-0.015,1.431-0.031,2.149-0.048l0,0
		c-0.06-2.275,0.34-4.383,1.139-6.35l0,0c4.861-11.99,24.323-18.829,42.423-27.695l0,0c-8.729,1.173-17.406,3.629-24.99,6.96l0,0
		C28.283,22.651,23.471,32.418,19.364,42.363L19.364,42.363z M18.33,40.014c3.131-7.356,6.872-14.557,13.802-20.711l0,0
		c-4.467,2.661-8.24,5.658-10.997,8.862l0,0c-0.63,1.048-1.176,2.112-1.609,3.197l0,0c-1.025,2.522-1.5,5.141-1.355,7.809l0,0
		C18.221,39.454,18.273,39.733,18.33,40.014L18.33,40.014z M29.035,19.56c2.84-1.79,5.982-3.443,9.357-4.923l0,0
		c2.909-1.83,6.251-3.515,10.11-5.028l0,0C40.812,12.132,34.151,15.547,29.035,19.56L29.035,19.56z"/>
</g>
</svg>
