<?xml version="1.0" encoding="utf-8"?>
<!-- Generator: Adobe Illustrator 16.0.0, SVG Export Plug-In . SVG Version: 6.00 Build 0)  -->
<!DOCTYPE svg PUBLIC "-//W3C//DTD SVG 1.1//EN" "http://www.w3.org/Graphics/SVG/1.1/DTD/svg11.dtd">
<svg version="1.1" id="Layer_1" xmlns="http://www.w3.org/2000/svg" xmlns:xlink="http://www.w3.org/1999/xlink" x="0px" y="0px"
	 width="92.667px" height="59.667px" viewBox="0 0 92.667 59.667" enable-background="new 0 0 92.667 59.667" xml:space="preserve">
<g>
	<path fill="#FFFFFF" d="M71.318,4.169c-0.066-0.098-0.133-0.193-0.196-0.282l-0.214,0.709c-0.525,0.583-0.959,1.243-1.29,1.983
		l-0.022,0.059c-0.091,0.014-0.181,0.023-0.271,0.046l-0.742,0.133l0.701,1.014c1.004,1.467,2.059,2.804,3.13,4.102
		c0.496,0.843,1.012,1.715,1.524,2.597c-7.665,5.177-14.687,13.277-22.271,19.143c-4.896,2.511-9.988,4.309-15.19,5.496
		c-9.595,2.186-20.598,6.934-30.799,4.589c-0.749-0.167-1.49-0.376-2.23-0.63l-0.329-0.115c-0.677-0.84-1.263-1.807-1.738-2.9
		l-0.477,0.688c0.652,1.476,1.445,2.712,2.355,3.743c1.38,8.39,5.584,12.626,11.053,13.835
		c18.421,4.139,53.386-22.953,62.668-38.739c1.585,2.578,3.157,4.953,4.614,6.682c-0.089,0.311-0.173,0.625-0.256,0.938l0.601,0.907
		c0.139-0.326,0.285-0.653,0.433-0.977c0.055,0.058,0.111,0.116,0.166,0.174l0.119-0.734c0.13,0.161,0.256,0.324,0.384,0.481
		l0.358-0.896c-0.094-0.211-0.191-0.419-0.286-0.622c3.089-6.505,6.914-13.018,8.662-21.251l0.149-0.7l-0.437-0.293
		c-1.253-0.845-2.905-1.485-4.757-1.909C81.552,0.296,74.845,0.754,71.318,4.169z M71.384,5.724
		c0.127,0.191,0.252,0.383,0.376,0.581c-0.317,0.047-0.633,0.091-0.952,0.144C70.983,6.193,71.177,5.952,71.384,5.724z
		 M72.731,10.944C72.08,9.842,71.443,8.78,70.83,7.797c0.564-0.089,1.121-0.167,1.683-0.244c1.383,2.371,2.673,5.097,3.96,7.813
		C75.216,13.846,73.953,12.416,72.731,10.944z M71.667,17.667c-4.335,5.065-9.012,9.175-13.934,12.449
		C62.4,25.891,66.947,21.305,71.667,17.667z M5.024,44.891c0.248,0.067,0.495,0.127,0.743,0.182
		c10.368,2.371,21.397-2.418,30.956-4.584c2.815-0.645,5.604-1.461,8.344-2.475c-7.23,4.006-23.776,11.837-34.767,9.299
		C8.321,46.863,6.533,46.071,5.024,44.891z M14.218,57.058c-5.165-1.226-8.75-4.776-10.141-11.665
		c1.785,1.673,3.943,2.686,6.317,3.234c11.924,2.721,29.893-6.372,36.292-10.055c1.815-1.048,3.582-2.274,5.315-3.611
		c4.194-2.154,8.247-4.836,12.108-8.11C61.52,38.23,45.599,44.014,38.948,46.225c-9.845,3.363-20.191,5.958-30.334,5.674
		l0.162,1.327c10.206,0.284,20.586-2.317,30.448-5.694c6.728-2.367,22.868-7.773,25.592-20.209c3.358-0.566,6.878-2.888,9.949-6.113
		C63.647,36.872,31.284,61.058,14.218,57.058z M65.254,25.856c3.285-2.915,6.421-6.28,9.389-10.123
		c0.457,0.773,0.915,1.549,1.377,2.319C72.834,21.966,68.947,24.991,65.254,25.856z M75.354,15.407
		c0.469,0.559,0.931,1.161,1.396,1.738c-0.065,0.088-0.136,0.172-0.202,0.261C76.148,16.746,75.749,16.077,75.354,15.407z
		 M77.429,18.843c0.095-0.172,0.182-0.346,0.274-0.519c0.146,0.197,0.306,0.371,0.458,0.575c0.93,1.892,1.871,3.714,2.862,5.329
		C79.887,22.739,78.667,20.857,77.429,18.843z M83.702,22.22c1.882-5.723,4.257-11.287,6.726-15.773
		C88.797,12.216,86.15,17.248,83.702,22.22z M82.282,23.915c-1.179-2.255-2.446-4.181-3.745-5.929
		c-0.11-0.227-0.222-0.469-0.334-0.701c0.148-0.328,0.302-0.659,0.421-0.972l-0.549-1.034c-0.158,0.243-0.332,0.468-0.495,0.705
		c-1.367-2.877-2.748-5.858-4.247-8.543c5.675-0.745,11.328-1.134,16.817-2.521C87.189,10.2,84.35,17.024,82.282,23.915z
		 M89.658,3.66C84.12,5.038,78.39,5.408,72.606,6.187c-0.207-0.354-0.423-0.697-0.636-1.035c3.39-2.979,9.893-3.559,14.854-2.388
		C87.85,2.997,88.808,3.298,89.658,3.66z"/>
</g>
</svg>
