<?xml version="1.0" encoding="utf-8"?>
<!-- Generator: Adobe Illustrator 16.0.0, SVG Export Plug-In . SVG Version: 6.00 Build 0)  -->
<!DOCTYPE svg PUBLIC "-//W3C//DTD SVG 1.1//EN" "http://www.w3.org/Graphics/SVG/1.1/DTD/svg11.dtd">
<svg version="1.1" id="Layer_1" xmlns="http://www.w3.org/2000/svg" xmlns:xlink="http://www.w3.org/1999/xlink" x="0px" y="0px"
	 width="75.354px" height="55.628px" viewBox="0 0 75.354 55.628" enable-background="new 0 0 75.354 55.628" xml:space="preserve">
<g>
	<path fill="#FFFFFF" d="M47.125,53.874c-0.084-0.314-0.202-0.621-0.313-0.926l0,0c-1.957-4.831-8.343-8.337-13.849-12.131l0,0
		l1.67-0.568c6.087,2.502,11.976,5.282,15.47,8.75l0,0c0.822-1.734,1.411-3.381,1.796-4.949l0,0
		c-2.001-0.554-3.773-1.12-5.255-1.259l0,0l1.127-0.632c1.309-0.118,2.875-0.298,4.557-0.508l0,0
		c0.03-0.311,0.062-0.621,0.076-0.922l0,0c-5.383,0.161-10.081-0.017-13.754-0.623l0,0l1.359-0.635
		c3.938,0.093,8.162,0.191,12.428,0.284l0,0c-0.013-2.015-0.398-3.893-1.111-5.657l0,0C46.468,22.076,26.319,15.383,8.118,6.239l0,0
		l1.525-0.605c6.273,0.588,12.572,1.864,18.513,3.674l0,0C23.468,7.316,17.958,5.6,11.398,4.242l0,0l1.482-0.625
		c2.729,0.366,5.392,0.837,7.977,1.402l0,0C14.997,3.57,8.669,2.5,2,1.881l0,0L2.012,1.88L3.38,1.245
		c27.562,2.571,49.395,12.641,54.785,25.922l0,0c0.252,0.59,0.451,1.194,0.624,1.8l0,0c0.5,0.83,0.918,1.67,1.265,2.519l0,0
		c1.069,2.666,1.397,5.415,0.811,8.195l0,0c3.664-0.28,7.542-0.681,11.562-1.182l0,0l0.927-0.117l-0.527,0.365
		c-5.94,4.098-13.34,8.906-21.015,13.183l0,0l-1.029,0.783l-0.094-0.163c-0.674,0.371-1.356,0.738-2.044,1.102l0,0l-1.375,0.731
		L47.125,53.874L47.125,53.874z M48.565,52.471c0.057,0.141,0.111,0.285,0.168,0.43l0,0c0.54-0.295,1.086-0.595,1.635-0.899l0,0
		c-0.205-0.331-0.429-0.657-0.672-0.976l0,0l-0.702,0.12c0.116-0.202,0.226-0.401,0.331-0.601l0,0
		c-1.968-2.357-5.07-4.406-8.687-6.26l0,0C44.166,46.734,47.288,49.317,48.565,52.471L48.565,52.471z M51.729,50.913
		c2.092-1.745,3.733-3.518,4.941-5.304l0,0c-0.202,0.031-0.4,0.055-0.599,0.078l0,0c-0.462,0.743-0.986,1.488-1.548,2.228l0,0
		l-0.051,0.067l-0.136,0.076c-0.118,0.065-0.334,0.179-0.733,0.289l0,0c-0.292,0.074-0.5,0.107-0.667,0.119l0,0
		c-0.529,0.605-1.081,1.208-1.675,1.817l0,0C51.426,50.488,51.588,50.699,51.729,50.913L51.729,50.913z M54.695,49.525
		c5.839-3.436,11.405-7.073,16.099-10.299l0,0c-2.449,0.295-4.855,0.559-7.187,0.775l0,0c0.639,0.016,1.274,0.029,1.904,0.043l0,0
		l-1.057,0.639c-1.127,0.101-2.484,0.255-3.973,0.438l0,0c-0.233,0.7-0.521,1.399-0.865,2.099l0,0
		c0.074,0.189,0.146,0.379,0.229,0.566l0,0l-0.624,0.169c-0.109,0.199-0.224,0.396-0.346,0.594l0,0
		c0.175,0.015,0.346,0.028,0.522,0.041l0,0l0.517,0.03l-0.525,0.287c-0.284,0.158-0.672,0.283-0.973,0.366l0,0
		c-0.004,0.001-0.008,0.002-0.013,0.003l0,0C57.446,46.694,56.212,48.114,54.695,49.525L54.695,49.525z M56.678,45.091
		c-0.076-0.01-0.153-0.02-0.232-0.03l0,0c-0.011,0.021-0.02,0.042-0.034,0.063l0,0C56.501,45.113,56.588,45.103,56.678,45.091
		L56.678,45.091z M53.314,45.818l-0.296-0.003l0,0l0,0L53.314,45.818L53.314,45.818z M53.551,45.579l-0.492,0.133L53.551,45.579
		L53.551,45.579z M53.819,45.397c0.165-0.245,0.325-0.492,0.476-0.735l0,0c-0.289-0.064-0.567-0.133-0.852-0.2l0,0
		c-0.09,0.333-0.197,0.672-0.308,1.014l0,0C53.413,45.427,53.54,45.429,53.819,45.397L53.819,45.397z M57.445,44.361
		c0.129-0.237,0.259-0.477,0.386-0.719l0,0c-0.093-0.234-0.187-0.468-0.291-0.701l0,0c-0.192,0.441-0.417,0.882-0.649,1.325l0,0
		C57.075,44.301,57.255,44.334,57.445,44.361L57.445,44.361z M54.811,43.801c0.411-0.701,0.766-1.395,1.088-2.089l0,0
		c-0.635,0.083-1.268,0.165-1.903,0.248l0,0c-0.07,0.503-0.175,1.019-0.299,1.542l0,0C54.064,43.605,54.436,43.706,54.811,43.801
		L54.811,43.801z M52.112,43.058c0.049-0.293,0.104-0.589,0.142-0.875l0,0c-0.822,0.104-1.62,0.201-2.383,0.29l0,0
		C50.593,42.636,51.339,42.839,52.112,43.058L52.112,43.058z M58.93,40.796c0.019-0.076,0.036-0.147,0.05-0.222l0,0
		c-0.146-0.003-0.292-0.006-0.444-0.009l0,0c0.037,0.088,0.074,0.178,0.111,0.266l0,0C58.742,40.819,58.834,40.807,58.93,40.796
		L58.93,40.796z M56.138,41.158c0.089-0.201,0.167-0.405,0.248-0.606l0,0c-0.756,0.042-1.503,0.08-2.232,0.108l0,0
		c-0.032,0.256-0.048,0.509-0.085,0.767l0,0C54.749,41.342,55.451,41.248,56.138,41.158L56.138,41.158z M59.159,39.802
		c0.253-1.351,0.295-2.697,0.135-4.032l0,0c-0.028,0.187-0.049,0.369-0.076,0.553l0,0c-0.066,1.161-0.252,2.334-0.57,3.513l0,0
		C58.825,39.823,58.989,39.812,59.159,39.802L59.159,39.802z M56.286,39.841c-3.995-9.674-8.676-19.175-20.157-26.394l0,0
		c-7.376-3.24-15.817-5.628-24.308-6.77l0,0c17.605,8.625,36.538,15.276,41.266,26.94l0,0c0.777,1.913,1.166,3.963,1.108,6.176l0,0
		C54.894,39.81,55.589,39.826,56.286,39.841L56.286,39.841z M57.292,37.555c0.055-0.273,0.106-0.544,0.156-0.82l0,0
		c0.141-2.595-0.321-5.142-1.318-7.596l0,0c-0.422-1.056-0.953-2.092-1.565-3.111l0,0c-2.682-3.117-6.353-6.031-10.697-8.621l0,0
		C50.607,23.395,54.246,30.399,57.292,37.555L57.292,37.555z M46.878,17.659c-4.977-3.903-11.457-7.225-18.937-9.68l0,0
		c3.754,1.472,7.005,3.111,9.834,4.891l0,0C41.059,14.308,44.116,15.917,46.878,17.659L46.878,17.659z"/>
</g>
</svg>
